<?xml version="1.0" encoding="utf-8"?>
<!-- Generator: Adobe Illustrator 16.0.4, SVG Export Plug-In . SVG Version: 6.00 Build 0)  -->
<!DOCTYPE svg PUBLIC "-//W3C//DTD SVG 1.1//EN" "http://www.w3.org/Graphics/SVG/1.1/DTD/svg11.dtd">
<svg version="1.1" id="Layer_1" xmlns="http://www.w3.org/2000/svg" xmlns:xlink="http://www.w3.org/1999/xlink" x="0px" y="0px"
	 width="25px" height="25px" viewBox="0 0 25 25" enable-background="new 0 0 25 25" xml:space="preserve">
<g>
	<path fill="#010101" d="M21.128,23.048H1.92V3.842h14.168l1.196-1.92H1.92c-1.06,0-1.92,0.86-1.92,1.92v19.206
		c0,1.06,0.861,1.921,1.92,1.921h19.208c1.058,0,1.92-0.861,1.92-1.921V10.366l-1.92,3.078V23.048z"/>
	<path fill="#010101" d="M24.36,0.22C24.132,0.071,23.877,0,23.625,0c-0.436,0-0.866,0.215-1.125,0.609L12.061,15.671l-4.041-4.61
		c-0.548-0.505-1.396-0.472-1.902,0.073c-0.505,0.545-0.47,1.396,0.075,1.9l4.856,5.541l0.119,0.135l0.122,0.141l0.05,0.03
		l0.102,0.101l0.263,0.119l0.06,0.029l0.412,0.072l0.019-0.004c0.363,0.001,0.728-0.135,0.994-0.423l0.108-0.176l0.007-0.008
		L24.751,2.078C25.156,1.459,24.981,0.627,24.36,0.22z"/>
</g>
</svg>
