<?xml version="1.0" encoding="utf-8"?>
<!-- Generator: Adobe Illustrator 16.0.4, SVG Export Plug-In . SVG Version: 6.00 Build 0)  -->
<!DOCTYPE svg PUBLIC "-//W3C//DTD SVG 1.1//EN" "http://www.w3.org/Graphics/SVG/1.1/DTD/svg11.dtd">
<svg version="1.1" id="Layer_1" xmlns="http://www.w3.org/2000/svg" xmlns:xlink="http://www.w3.org/1999/xlink" x="0px" y="0px"
	 width="25px" height="25px" viewBox="0 0 25 25" enable-background="new 0 0 25 25" xml:space="preserve">
<g>
	<g>
		<path fill="#010101" d="M16.172-0.021h-5.971c-2.661,0-4.503,0.583-6.161,1.953C2.735,3.058,1.957,4.693,1.957,6.307
			c0,2.486,1.896,5.128,5.409,5.128c0.338,0,0.712-0.034,1.042-0.064l-0.049,0.118c-0.141,0.339-0.275,0.658-0.275,1.156
			c0,0.97,0.468,1.567,0.92,2.147l0.057,0.071L8.96,14.87c-1.451,0.1-4.151,0.284-6.123,1.496c-2.329,1.385-2.51,3.399-2.51,3.983
			c0,2.325,2.166,4.671,7.006,4.671c5.628,0,8.572-3.105,8.572-6.171c0.002-2.268-1.33-3.389-2.741-4.577l-1.191-0.927
			c-0.368-0.304-0.826-0.685-0.826-1.388c0-0.69,0.458-1.146,0.863-1.549l0.042-0.042c1.286-1.013,2.743-2.161,2.743-4.646
			c0-2.498-1.561-3.789-2.312-4.409h1.983c0.023,0,0.047-0.007,0.068-0.02l1.707-1.073c0.047-0.031,0.07-0.09,0.055-0.146
			S16.23-0.021,16.172-0.021z M8.931,23.653c-3.431,0-5.735-1.604-5.735-3.988c0-1.557,0.942-2.688,2.8-3.36
			c1.486-0.501,3.406-0.525,3.425-0.525c0.325,0,0.489,0,0.749,0.032c2.399,1.708,3.554,2.605,3.554,4.312
			C13.723,22.301,11.886,23.653,8.931,23.653z M8.898,10.52c-2.878,0-4.073-3.785-4.073-5.811c0-1.03,0.234-1.821,0.716-2.418
			C6.064,1.637,6.96,1.214,7.823,1.214c2.644,0,4.106,3.553,4.106,6.008c0,0.387,0,1.566-0.814,2.384
			C10.566,10.153,9.676,10.52,8.898,10.52z"/>
		<path fill="#010101" d="M24.543,11.675h-3.146V8.54c0-0.071-0.059-0.129-0.129-0.129h-1.354c-0.072,0-0.131,0.058-0.131,0.129
			v3.136h-3.129c-0.072,0-0.131,0.057-0.131,0.13v1.372c0,0.07,0.059,0.129,0.131,0.129h3.129v3.156
			c0,0.071,0.059,0.129,0.131,0.129h1.354c0.07,0,0.129-0.058,0.129-0.129v-3.156h3.146c0.07,0,0.131-0.059,0.131-0.129v-1.372
			C24.674,11.732,24.615,11.675,24.543,11.675z"/>
	</g>
</g>
</svg>
