<?xml version="1.0" encoding="utf-8"?>
<!-- Generator: Adobe Illustrator 16.0.4, SVG Export Plug-In . SVG Version: 6.00 Build 0)  -->
<!DOCTYPE svg PUBLIC "-//W3C//DTD SVG 1.1//EN" "http://www.w3.org/Graphics/SVG/1.1/DTD/svg11.dtd">
<svg version="1.1" id="Layer_1" xmlns="http://www.w3.org/2000/svg" xmlns:xlink="http://www.w3.org/1999/xlink" x="0px" y="0px"
	 width="25px" height="25px" viewBox="0 0 25 25" enable-background="new 0 0 25 25" xml:space="preserve">
<path fill="#010101" d="M24.932,19.025c-0.056-0.113-1.449-2.759-5.301-3.692c-0.271-0.07-0.547,0.001-0.753,0.18
	c-1.216,1.035-2.895,2.145-3.621,2.257c-4.859-2.376-7.57-6.934-7.673-7.798C7.525,9.485,8.638,7.778,9.919,6.39
	c0.162-0.176,0.244-0.415,0.221-0.653C9.815,1.99,5.906,0.151,5.74,0.077C5.584,0.005,5.41-0.017,5.243,0.012
	C0.73,0.76,0.051,3.387,0.024,3.496c-0.037,0.154-0.03,0.312,0.018,0.46C5.423,20.655,16.609,23.75,20.287,24.769l0.692,0.2
	l0.264,0.04l0.353-0.076c0.112-0.052,2.77-1.303,3.419-5.387C25.042,19.369,25.015,19.185,24.932,19.025z"/>
</svg>
