<?xml version="1.0" encoding="utf-8"?>
<!-- Generator: Adobe Illustrator 16.0.4, SVG Export Plug-In . SVG Version: 6.00 Build 0)  -->
<!DOCTYPE svg PUBLIC "-//W3C//DTD SVG 1.1//EN" "http://www.w3.org/Graphics/SVG/1.1/DTD/svg11.dtd">
<svg version="1.1" id="Layer_1" xmlns="http://www.w3.org/2000/svg" xmlns:xlink="http://www.w3.org/1999/xlink" x="0px" y="0px"
	 width="25px" height="25px" viewBox="0 0 25 25" enable-background="new 0 0 25 25" xml:space="preserve">
<g>
	<path fill="#010101" d="M15.323,5.314c0.7,0.099,1.383,0.275,2.061,0.482c1.179,0.364,2.293,0.869,3.342,1.524
		c0.071,0.045,0.169,0.074,0.255,0.074c1.231,0.005,2.46,0.003,3.69,0.004c0.098,0,0.197,0.01,0.295,0.016
		c0,0.024,0.004,0.034,0,0.04c-0.057,0.088-0.115,0.176-0.174,0.264c-0.416,0.641-0.773,1.31-0.983,2.05
		c-0.021,0.08-0.028,0.146,0.026,0.225c1.096,1.572,1.444,3.299,0.987,5.16c-0.402,1.633-1.337,2.905-2.76,3.807
		c-1.017,0.644-2.139,0.951-3.337,0.958c-0.505,0.002-1.006-0.065-1.5-0.192c-1.198-0.312-2.228-0.909-3.074-1.814
		c-0.111-0.119-0.217-0.243-0.336-0.378c-0.448,0.668-0.889,1.325-1.34,1.999c-0.45-0.672-0.885-1.322-1.318-1.971
		c-0.03,0.017-0.039,0.019-0.044,0.022c-0.01,0.009-0.019,0.019-0.027,0.028c-1.025,1.21-2.314,1.952-3.884,2.2
		c-0.874,0.138-1.739,0.088-2.588-0.146c-1.203-0.33-2.225-0.965-3.051-1.9c-0.807-0.916-1.309-1.979-1.497-3.188
		c-0.216-1.127,0.047-2.214,0.113-2.479C0.368,11.333,0.7,10.628,1.154,9.98c0.032-0.046,0.043-0.127,0.028-0.182
		C0.997,9.119,0.677,8.5,0.303,7.908c-0.095-0.151-0.208-0.29-0.314-0.435c0-0.016,0-0.034,0-0.05
		C0.01,7.425,0.031,7.429,0.052,7.429c1.259,0,2.517,0.001,3.776-0.001c0.055,0,0.116-0.023,0.162-0.053
		c0.885-0.567,1.827-1.017,2.817-1.367C7.521,5.756,8.25,5.56,8.994,5.416c0.72-0.14,1.443-0.237,2.175-0.286
		C12.951,4.993,14.376,5.182,15.323,5.314z M13.746,13.628c0,2.765,2.242,5.023,4.996,5.013c2.766-0.011,4.997-2.206,4.995-4.999
		c0-2.881-2.338-5.046-5.101-4.99C15.906,8.708,13.771,10.908,13.746,13.628z M6.25,8.632c-2.689-0.023-5.034,2.221-4.986,5.079
		c0.043,2.667,2.24,4.927,5.042,4.901c2.739-0.022,4.94-2.26,4.946-4.968C11.256,10.862,9.028,8.632,6.25,8.632z M6.498,7.329
		c1.519,0.092,2.853,0.622,3.98,1.647c1.125,1.023,1.784,2.3,2.023,3.801c0.246-1.483,0.888-2.748,1.991-3.76
		c1.105-1.014,2.423-1.547,3.916-1.659c-1.772-0.789-3.641-1.123-5.566-1.161C10.657,6.154,8.529,6.477,6.498,7.329z"/>
	<path fill="#010101" d="M18.731,10.475c1.712-0.002,3.097,1.375,3.097,3.085c0,1.714-1.36,3.04-2.969,3.102
		c-1.794,0.069-3.229-1.361-3.229-3.095C15.631,11.812,17.078,10.446,18.731,10.475z M20.751,13.566
		c-0.002-1.115-0.903-2.021-2.011-2.021c-1.12,0-2.032,0.901-2.037,2.014c-0.004,1.106,0.913,2.027,2.024,2.03
		C19.837,15.595,20.751,14.68,20.751,13.566z"/>
	<path fill="#010101" d="M6.185,10.475c1.709-0.001,3.097,1.379,3.092,3.088c-0.005,1.729-1.368,3.026-2.946,3.098
		c-1.802,0.083-3.255-1.353-3.252-3.097C3.082,11.796,4.538,10.445,6.185,10.475z M8.199,13.56c-0.003-1.122-0.91-2.016-2.043-2.014
		c-1.092,0.002-2.008,0.924-2.005,2.021c0.002,1.109,0.917,2.021,2.03,2.023C7.287,15.593,8.202,14.672,8.199,13.56z"/>
	<path fill="#010101" d="M18.733,12.54c0.568,0,1.032,0.465,1.027,1.028c-0.006,0.565-0.464,1.022-1.021,1.022
		c-0.574,0-1.035-0.452-1.033-1.016C17.707,12.992,18.155,12.541,18.733,12.54z"/>
	<path fill="#010101" d="M6.179,12.532c0.576-0.001,1.038,0.458,1.04,1.033c0.002,0.569-0.464,1.035-1.037,1.037
		c-0.586,0.001-1.039-0.452-1.038-1.042C5.144,12.981,5.595,12.532,6.179,12.532z"/>
</g>
</svg>
