<?xml version="1.0" encoding="utf-8"?>
<!-- Generator: Adobe Illustrator 16.0.4, SVG Export Plug-In . SVG Version: 6.00 Build 0)  -->
<!DOCTYPE svg PUBLIC "-//W3C//DTD SVG 1.1//EN" "http://www.w3.org/Graphics/SVG/1.1/DTD/svg11.dtd">
<svg version="1.1" id="Layer_1" xmlns="http://www.w3.org/2000/svg" xmlns:xlink="http://www.w3.org/1999/xlink" x="0px" y="0px"
	 width="25px" height="25px" viewBox="0 0 25 25" enable-background="new 0 0 25 25" xml:space="preserve">
<path fill="#010101" d="M24.959,4.774c-0.917,0.406-1.9,0.682-2.935,0.805c1.055-0.632,1.864-1.635,2.247-2.826
	c-0.99,0.585-2.083,1.011-3.248,1.241c-0.933-0.995-2.26-1.615-3.73-1.615c-2.823,0-5.112,2.29-5.112,5.111
	c0,0.4,0.045,0.791,0.132,1.164C8.065,8.441,4.298,6.406,1.778,3.313C1.336,4.067,1.086,4.945,1.086,5.882
	c0,1.774,0.903,3.339,2.273,4.254c-0.838-0.028-1.626-0.259-2.315-0.642v0.063c0,2.477,1.762,4.542,4.1,5.014
	c-0.428,0.115-0.879,0.179-1.347,0.179c-0.33,0-0.649-0.033-0.962-0.095c0.651,2.032,2.538,3.511,4.774,3.552
	c-1.749,1.37-3.954,2.185-6.348,2.185c-0.413,0-0.82-0.024-1.22-0.069c2.263,1.453,4.948,2.298,7.836,2.298
	c9.402,0,14.544-7.787,14.544-14.542l-0.017-0.663C23.406,6.698,24.274,5.798,24.959,4.774z"/>
</svg>
