<?xml version="1.0" encoding="utf-8"?>
<!-- Generator: Adobe Illustrator 16.0.4, SVG Export Plug-In . SVG Version: 6.00 Build 0)  -->
<!DOCTYPE svg PUBLIC "-//W3C//DTD SVG 1.1//EN" "http://www.w3.org/Graphics/SVG/1.1/DTD/svg11.dtd">
<svg version="1.1" id="Layer_1" xmlns="http://www.w3.org/2000/svg" xmlns:xlink="http://www.w3.org/1999/xlink" x="0px" y="0px"
	 width="25px" height="25px" viewBox="0 0 25 25" enable-background="new 0 0 25 25" xml:space="preserve">
<path fill="#010101" d="M1.987,23.793h21.035c1.472,0,2.417-1.551,1.753-2.86L14.258,2.295c-0.726-1.451-2.801-1.451-3.526,0
	L0.214,20.933C-0.43,22.242,0.517,23.793,1.987,23.793z M14.157,19.462c0,0.966-0.705,1.712-1.713,1.712
	c-1.007,0-1.713-0.746-1.713-1.712v-0.04c0-0.968,0.706-1.714,1.713-1.714c1.008,0,1.713,0.746,1.713,1.714V19.462z M11.518,6.868
	h1.975c0.544,0,0.866,0.464,0.806,1.048l-0.866,7.576c-0.062,0.545-0.424,0.887-0.927,0.887c-0.504,0-0.867-0.342-0.927-0.887
	l-0.865-7.576C10.651,7.332,10.974,6.868,11.518,6.868z"/>
</svg>
